<?xml version="1.0" standalone="no"?>
<!DOCTYPE svg PUBLIC "-//W3C//DTD SVG 20010904//EN"
 "http://www.w3.org/TR/2001/REC-SVG-20010904/DTD/svg10.dtd">
<svg version="1.0" xmlns="http://www.w3.org/2000/svg"
 width="50.000000pt" height="50.000000pt" viewBox="0 0 50.000000 50.000000"
 preserveAspectRatio="xMidYMid meet">

<g transform="translate(0.000000,50.000000) scale(0.100000,-0.100000)"
fill="#000000" stroke="none">
<path d="M410 175 l0 -175 40 0 40 0 0 175 0 175 -40 0 -40 0 0 -175z"/>
    <path d="M210 130 l0 -130 40 0 40 0 0 130 0 130 -40 0 -40 0 0 -130z"/>
    <path d="M310 105 l0 -105 40 0 40 0 0 105 0 105 -40 0 -40 0 0 -105z"/>
    <path d="M110 105 l0 -105 40 0 40 0 0 90 0 105 -40 0 -40 0 0 -105z"/>
    <path d="M10 105 l0 -105 40 0 40 0 0 10 0 105 -40 0 -40 0 0 -105z"/>
</g>
</svg>
